<?xml version="1.0" encoding="utf-8"?>
<!-- Generator: Adobe Illustrator 19.1.0, SVG Export Plug-In . SVG Version: 6.00 Build 0)  -->
<!DOCTYPE svg PUBLIC "-//W3C//DTD SVG 1.1//EN" "http://www.w3.org/Graphics/SVG/1.1/DTD/svg11.dtd">
<svg version="1.1" id="Layer_1" xmlns="http://www.w3.org/2000/svg" xmlns:xlink="http://www.w3.org/1999/xlink" x="0px" y="0px"
	 viewBox="0 0 1600 1384.9" style="enable-background:new 0 0 1600 1384.9;" xml:space="preserve">
<style type="text/css">
	.st0{opacity:0.3;clip-path:url(#SVGID_2_);}
	.st1{fill:none;stroke:#E6E7E8;stroke-width:1.9973;stroke-linecap:round;}
</style>
<g>
	<defs>
		<rect id="SVGID_1_" x="-3.5" y="0.3" width="1605.4" height="1438.5"/>
	</defs>
	<clipPath id="SVGID_2_">
		<use xlink:href="#SVGID_1_"  style="overflow:visible;"/>
	</clipPath>
	<g class="st0">
		<path class="st1" d="M1307.1-95.9c0,0,453.3,1011.2,90.5,1230.4c-362.8,219.2-620-846.8-1052.9-477.5
			c-496.2,423.2-613.5,1554.8-613.5,1554.8 M1275.9-95.9c0,0,479.1,974.1,134.4,1202.3c-230.3,152.4-427.5-255.9-658.8-432
			c-114.2-86.9-237-117.5-378.5,0.4C156.3,855.6,8.5,1161.6-94.4,1449.9C-228.2,1821-268.5,2176-268.5,2176 M1244.7-95.9
			c0,0,505,937,178.3,1174.2c-217.5,157.9-416.3-228.8-646-392.1c-113.7-80.8-235.6-107.6-375.6,6.5
			c-216.6,176.6-366.9,468.6-479.7,743c-145.4,353.7-190,704.6-190,704.6 M1213.4-95.9c0,0,530.9,899.8,222.2,1146.1
			c-204.7,163.3-405.2-201.6-633.3-352.2c-113.2-74.7-234.2-97.7-372.7,12.5C213,882.8,59.9,1160.9-62.2,1421.3
			c-157.6,336.1-205.9,683.2-205.9,683.2 M1182.2-95.9c0,0,556.9,862.4,266.1,1118c-191.8,168.6-394.1-174.5-620.6-312.2
			c-112.8-68.6-232.9-87.8-369.9,18.6C241.4,896.5,85.3,1160.5-46.1,1407c-169.9,318.6-221.8,661.8-221.8,661.8 M1150.9-95.9
			c0,0,582.9,824.9,310,1089.8c-179,173.8-383.2-147.3-607.8-272.3c-112.4-62.5-231.5-77.9-367,24.6
			C269.7,910.1,110.7,1160.1-30,1392.7C-212.2,1693.8-267.7,2033-267.7,2033 M1119.7-95.9c0,0,609,787.1,353.9,1061.7
			c-166.1,178.8-372.4-120.2-595.1-232.4c-112.1-56.5-230.2-68-364.1,30.7C297.9,923.7,136,1159.8-13.9,1378.3
			c-194.6,283.7-253.6,618.9-253.6,618.9 M1088.4-95.9c0,0,635,749.2,397.8,1033.6c-153.3,183.8-361.6-93-582.3-192.5
			C792.1,694.9,675,687.1,542.7,782C326.1,937.2,161.3,1159.5,2.2,1364c-207.1,266.3-269.6,597.5-269.6,597.5 M1057.2-95.9
			c0,0,661,711.1,441.7,1005.5c-140.5,188.6-351-65.8-569.6-152.6c-111.6-44.3-227.6-48.3-358.4,42.8
			c-216.6,150.9-384.5,359.3-552.7,549.8c-219.7,249-285.5,576.1-285.5,576.1 M1026-95.9c0,0,686.9,672.9,485.6,977.4
			c-127.8,193.3-340.4-38.5-556.8-112.7c-111.4-38.2-226.4-38.5-355.5,48.8c-216.7,146.6-387.6,341.1-564.8,517.7
			C-198,1567-267,1890-267,1890 M994.7-95.9c0,0,712.7,634.5,529.5,949.3c-115.1,197.9-330-11.1-544.1-72.7
			c-111.3-32-225.2-28.7-352.7,54.9c-216.9,142.2-390.9,322.9-577,485.5c-245.2,214.2-317.3,533.2-317.3,533.2 M963.5-95.9
			c0,0,738.3,595.9,573.4,921.2c-102.6,202.4-319.7,16.3-531.3-32.8c-111.2-25.8-224-18.9-349.8,61
			c-217.1,137.8-394.2,304.7-589.2,453.3c-258.1,196.7-333.2,511.8-333.2,511.8 M932.2-95.9c0,0,763.7,557.2,617.3,893.1
			c-90.2,206.9-309.5,43.9-518.6,7.1c-111.2-19.6-222.8-9.1-346.9,67c-217.3,133.3-397.6,286.4-601.3,421.1
			c-271,179.2-349.1,490.4-349.1,490.4 M901-95.9c0,0,788.9,518.5,661.2,865c-77.9,211.3-299.4,71.6-505.9,47
			c-111.3-13.3-221.7,0.6-344.1,73.1c-217.6,128.8-401,268.1-613.5,388.9c-284.1,161.6-365.1,468.9-365.1,468.9 M869.8-95.8
			c0,0,813.9,479.7,705.1,836.9c-65.7,215.6-289.3,99.5-493.1,86.9c-111.3-6.9-220.6,10.3-341.2,79.1
			c-217.9,124.3-404.5,249.7-625.7,356.7c-297.2,143.9-381,447.5-381,447.5 M838.5-95.8c0,0,838.7,440.9,749,808.8
			c-53.6,220-279.3,127.5-480.4,126.8c-111.4-0.4-219.5,19.9-338.3,85.2c-218.2,119.7-408,231.2-637.8,324.5
			c-310.3,126.1-396.9,426.1-396.9,426.1 M807.3-95.8c0,0,863.3,402.1,792.9,780.7c-41.7,224.4-269.2,155.7-467.6,166.8
			c-111.5,6.2-218.4,29.6-335.5,91.2c-218.6,115.1-411.5,212.6-650,292.4c-323.5,108.2-412.8,404.7-412.8,404.7 M776-95.8
			c0,0,887.7,363.3,836.8,752.6C1583,885.5,1353.7,840.8,1158,863.4c-111.6,12.9-217.3,39.1-332.6,97.3
			c-219,110.4-415,194-662.1,260.2c-336.6,90.2-428.7,383.2-428.7,383.2 M744.8-95.8c0,0,911.9,324.7,880.7,724.5
			c-18.2,233.2-249,212.6-442.1,246.6c-111.6,19.7-216.3,48.7-329.7,103.3c-219.4,105.6-418.5,175.2-674.3,228
			c-349.7,72.1-444.6,361.8-444.6,361.8 M713.6-95.8c0,0,936,286.1,924.6,696.3c-6.6,237.7-238.7,241.2-429.4,286.5
			c-111.6,26.5-215.2,58.2-326.8,109.4c-219.9,100.7-421.9,156.5-686.5,195.8c-362.8,53.9-460.6,340.4-460.6,340.4 M682.3-95.8
			c0,0,959.9,247.6,968.5,668.2c5,242.3-228.4,270-416.6,326.4c-111.4,33.4-214.2,67.7-324,115.4
			c-220.4,95.8-425.3,137.7-698.6,163.6c-375.8,35.7-476.5,319-476.5,319 M651.1-95.8c0,0,983.6,209.2,1012.4,640.1
			c16.5,246.9-217.8,298.8-403.9,366.3c-111.3,40.4-213.2,77.2-321.1,121.5c-221,90.7-428.7,118.8-710.8,131.4
			c-388.7,17.4-492.4,297.5-492.4,297.5 M619.8-95.8c0,0,1007.3,170.9,1056.3,612c27.9,251.6-207.2,327.6-391.1,406.3
			c-111,47.4-212.2,86.5-318.2,127.5c-221.5,85.6-432,99.9-723,99.3c-401.6-1-508.3,276.1-508.3,276.1 M588.6-95.8
			c0,0,1031,132.8,1100.2,583.9c39.4,256.4-196.4,356.5-378.4,446.2c-110.6,54.5-211.2,95.9-315.4,133.6
			c-222.1,80.3-435.2,81.1-735.2,67.1c-414.4-19.3-524.2,254.7-524.2,254.7 M557.3-95.8c0,0,1054.5,94.8,1144.1,555.8
			c50.8,261.2-185.4,385.4-365.7,486.1c-110.2,61.5-210.2,105.2-312.5,139.6c-222.7,74.9-438.4,62.1-747.3,34.9
			c-427.2-37.7-540.1,233.3-540.1,233.3 M526.1-95.8c0,0,1078.1,56.8,1188,527.7c62.1,266.1-174.3,414.3-352.9,526
			c-109.6,68.6-209.2,114.5-309.6,145.7c-223.3,69.4-441.5,42.8-759.5,2.7c-439.8-56.7-556.1,211.8-556.1,211.8 M494.9-95.8
			c0,0,1101.6,19,1231.9,499.6c73.5,271.1-163.1,443.1-340.2,565.9c-356.7,247.3-607.6,199.7-1078.4,122.2
			c-452.5-74.5-572,190.4-572,190.4"/>
	</g>
</g>
<g>
</g>
<g>
</g>
<g>
</g>
<g>
</g>
<g>
</g>
<g>
</g>
</svg>
