<?xml version="1.0" encoding="utf-8"?>
<!-- Generator: Adobe Illustrator 19.1.0, SVG Export Plug-In . SVG Version: 6.00 Build 0)  -->
<!DOCTYPE svg PUBLIC "-//W3C//DTD SVG 1.1//EN" "http://www.w3.org/Graphics/SVG/1.1/DTD/svg11.dtd">
<svg version="1.1" id="Layer_1" xmlns="http://www.w3.org/2000/svg" xmlns:xlink="http://www.w3.org/1999/xlink" x="0px" y="0px"
	 viewBox="0 0 60 70" style="enable-background:new 0 0 60 70;" xml:space="preserve">
<style type="text/css">
	.st0{fill:#939598;}
</style>
<g>
	<path class="st0" d="M31,67.3c-0.2,0.3-0.5,0.4-0.9,0.4c-0.4,0-0.7-0.1-0.9-0.4c-0.2-0.3-0.3-0.7-0.3-1.2c0-0.5,0.1-0.9,0.3-1.2
		c0.2-0.3,0.5-0.4,0.9-0.4c0.4,0,0.7,0.1,0.9,0.4c0.2,0.3,0.3,0.7,0.3,1.2C31.3,66.6,31.2,67,31,67.3L31,67.3z M31.5,64.5
		c-0.2-0.2-0.4-0.4-0.6-0.5c-0.2-0.1-0.5-0.2-0.8-0.2c-0.3,0-0.5,0.1-0.8,0.2c-0.2,0.1-0.4,0.3-0.6,0.5c-0.2,0.2-0.3,0.4-0.4,0.7
		c-0.1,0.3-0.1,0.6-0.1,0.9c0,0.3,0,0.6,0.1,0.9c0.1,0.3,0.2,0.5,0.4,0.7c0.2,0.2,0.4,0.4,0.6,0.5c0.2,0.1,0.5,0.2,0.8,0.2
		c0.3,0,0.5-0.1,0.8-0.2c0.2-0.1,0.4-0.3,0.6-0.5c0.2-0.2,0.3-0.4,0.4-0.7c0.1-0.3,0.1-0.6,0.1-0.9c0-0.3,0-0.6-0.1-0.9
		C31.7,64.9,31.6,64.7,31.5,64.5L31.5,64.5z M37.7,66.5c0,0.4-0.1,0.7-0.3,0.9c-0.2,0.2-0.4,0.3-0.8,0.3c-0.3,0-0.6-0.1-0.8-0.3
		c-0.2-0.2-0.3-0.5-0.3-1v-2.6H35v2.6c0,0.6,0.1,1.1,0.4,1.4c0.3,0.3,0.7,0.5,1.2,0.5c0.6,0,1-0.2,1.3-0.5c0.3-0.3,0.4-0.8,0.4-1.4
		v-2.6h-0.7V66.5L37.7,66.5z M44,65.8C43.9,66,43.7,66,43.4,66h-1.2v-1.5h1.2c0.2,0,0.4,0.1,0.6,0.2c0.1,0.1,0.2,0.3,0.2,0.6
		C44.2,65.5,44.1,65.7,44,65.8L44,65.8z M44.7,64.7c-0.1-0.2-0.2-0.3-0.3-0.4C44.3,64.1,44.2,64,44,64c-0.2-0.1-0.4-0.1-0.6-0.1
		h-1.9v4.4h0.7v-1.7h1.2c0.2,0,0.4,0,0.6-0.1c0.2-0.1,0.3-0.1,0.5-0.3c0.1-0.1,0.2-0.3,0.3-0.4c0.1-0.2,0.1-0.4,0.1-0.6
		C44.8,65,44.8,64.8,44.7,64.7L44.7,64.7z M17.4,66.7h0.7v0c0,0.1,0,0.3-0.1,0.4c0,0.1-0.1,0.2-0.2,0.3c-0.1,0.1-0.2,0.2-0.3,0.2
		c-0.1,0.1-0.3,0.1-0.5,0.1c-0.4,0-0.7-0.1-0.9-0.4c-0.2-0.3-0.3-0.7-0.3-1.2c0-0.5,0.1-0.9,0.3-1.2c0.2-0.3,0.5-0.4,0.9-0.4
		c0.2,0,0.4,0,0.5,0.1c0.1,0.1,0.3,0.2,0.4,0.4l0.6-0.4c-0.2-0.3-0.4-0.5-0.6-0.6c-0.2-0.1-0.5-0.2-0.9-0.2c-0.3,0-0.5,0.1-0.8,0.2
		c-0.2,0.1-0.4,0.3-0.6,0.5c-0.2,0.2-0.3,0.4-0.4,0.7c-0.1,0.3-0.1,0.6-0.1,0.9c0,0.3,0,0.6,0.1,0.9c0.1,0.3,0.2,0.5,0.4,0.7
		c0.2,0.2,0.4,0.4,0.6,0.5c0.2,0.1,0.5,0.2,0.8,0.2c0.2,0,0.5,0,0.7-0.1c0.2-0.1,0.4-0.2,0.5-0.4c0.1-0.2,0.3-0.3,0.3-0.6
		c0.1-0.2,0.1-0.5,0.1-0.8v-0.5h-1.4V66.7L17.4,66.7z M24.3,65.8c-0.1,0.1-0.3,0.2-0.5,0.2h-1.3v-1.4h1.3c0.2,0,0.4,0.1,0.5,0.2
		c0.1,0.1,0.2,0.3,0.2,0.5C24.5,65.5,24.5,65.6,24.3,65.8L24.3,65.8z M25,66.1c0.2-0.2,0.3-0.5,0.3-0.9c0-0.2,0-0.4-0.1-0.6
		c-0.1-0.2-0.2-0.3-0.3-0.4c-0.1-0.1-0.3-0.2-0.5-0.2c-0.2-0.1-0.4-0.1-0.5-0.1h-1.9v4.4h0.7v-1.8h1l0.9,1.8h0.8l-0.9-1.8
		C24.5,66.4,24.8,66.3,25,66.1L25,66.1z"/>
	<path class="st0" d="M30.7,55.2h-2v-2.1h2c0.7,0,1.1,0.4,1.1,1C31.7,54.8,31.4,55.2,30.7,55.2L30.7,55.2z M33.2,54.1
		c0-0.8-0.2-1.4-0.7-1.8c-0.5-0.4-1.1-0.6-1.8-0.6h-3.4v7.4h1.4v-2.8h1.6l1.3,2.8h1.7l-1.4-2.9C32.8,55.9,33.2,55.1,33.2,54.1
		L33.2,54.1z M21.8,55.2h-1.9v-2.1h1.9c0.7,0,1.1,0.4,1.1,1C22.8,54.8,22.5,55.2,21.8,55.2L21.8,55.2z M24.3,54.1
		c0-0.8-0.2-1.4-0.7-1.8c-0.5-0.4-1.1-0.6-1.8-0.6h-3.4v7.4h1.4v-2.8h1.5l1.3,2.8h1.7l-1.4-2.9C23.9,55.9,24.3,55.1,24.3,54.1
		L24.3,54.1z M48,55.2h-2.1v-2.1H48c0.7,0,1.1,0.4,1.1,1C49.1,54.8,48.7,55.2,48,55.2L48,55.2z M50.6,54.1c0-0.8-0.2-1.4-0.7-1.8
		c-0.5-0.4-1.1-0.6-1.8-0.6h-3.5v7.4h1.4v-2.8h1.6l1.3,2.8h1.7l-1.4-2.9C50.1,55.9,50.6,55.1,50.6,54.1L50.6,54.1z M37.9,55.9
		l0.5-1.3c0.2-0.5,0.3-0.8,0.4-1.1c0.1,0.3,0.2,0.6,0.4,1.1l0.5,1.3H37.9L37.9,55.9z M38,51.7l-2.8,7.4h1.6l0.6-1.8h2.7l0.6,1.8h1.6
		l-2.8-7.4H38L38,51.7z M57.1,57.1c-0.4,0.4-1,0.6-1.7,0.6h-0.7v-4.6h0.7c0.8,0,1.3,0.2,1.7,0.6c0.4,0.4,0.5,1,0.5,1.7
		C57.7,56.1,57.5,56.7,57.1,57.1L57.1,57.1z M58.2,52.5c-0.6-0.6-1.5-0.8-2.6-0.8h-2.2v7.4h2.1c1,0,1.9-0.3,2.6-0.9
		c0.8-0.7,1.2-1.6,1.2-2.8C59.2,54.1,58.9,53.2,58.2,52.5L58.2,52.5z M13.8,55.9c0,0.6-0.1,1.1-0.4,1.4c-0.3,0.3-0.6,0.5-1.1,0.5
		c-0.5,0-0.7-0.2-1-0.5c-0.3-0.3-0.3-0.8-0.3-1.4v-4.1H9.3v4.2c0,1.1,0.3,1.9,0.9,2.5c0.5,0.6,1.3,0.9,2.2,0.9
		c0.9,0,1.6-0.3,2.2-0.9c0.5-0.6,0.7-1.4,0.7-2.5v-4.1h-1.4V55.9L13.8,55.9z M4.2,57.7h-2v-1.8h2c0.7,0,1.1,0.2,1.1,0.9
		C5.3,57.5,4.9,57.7,4.2,57.7L4.2,57.7z M2.2,53.1h1.9c0.6,0,0.9,0.2,0.9,0.7c0,0.5-0.3,0.7-0.8,0.7h-2V53.1L2.2,53.1z M5.8,55.1
		c0.5-0.3,0.8-0.8,0.8-1.4c0-0.6-0.2-1.1-0.6-1.5c-0.4-0.3-1-0.5-1.7-0.5H0.8v7.4h3.4c0.8,0,1.4-0.2,1.9-0.6c0.5-0.4,0.7-1,0.7-1.8
		C6.8,56,6.5,55.4,5.8,55.1L5.8,55.1z"/>
	<path class="st0" d="M49.9,28.4c-0.9-2.5-2.9-4.2-5.7-4.9c-1-0.2-2-0.3-3-0.3c-1.1,0-2.3,0.1-3.5,0.4l-0.3,1c-1.6,4.6-3,8.6-3,8.6
		l0,0c0,0.1-1.5,5.1-5.9,8.2l-0.1,0.1c-0.4,0.3-0.7,0.4-0.8,0.5c-1.2,0.7-2.4,1.2-3.7,1.5c2.5,1.5,5.5,2.3,8.6,2.3
		C37,45.7,41.4,44,45,41c1.2-1,2.3-2.1,3.2-3.4l0,0l0.3-0.4C50.4,34.4,50.9,31.1,49.9,28.4L49.9,28.4z M46.2,7.3
		c-0.1,0.1-0.2,0.2-0.3,0.3c0,0,0,0,0,0c0,0-0.1,0.1-0.1,0.1c-0.4,0.3-0.7,0.7-1.1,1c-1.6,1.7-2.9,3.9-4,6.6L39,20.1l-0.3,0.7l0,0.1
		c2.4-0.5,6.4-1.9,9.2-5.5c1.7-2.3,2.1-4.9,1.2-7.4c-0.2-0.7-0.6-1.3-1-1.9c-0.4,0.2-0.7,0.4-1.1,0.6C46.6,7,46.4,7.2,46.2,7.3
		L46.2,7.3z M30.4,34.1l3.2-9.2c1.4-4,2.6-7.5,2.9-8.2c0.5-1.3,3.1-7.8,8.7-10.1C46,6.3,46.9,6,47.8,5.9c0,0,0,0,0,0
		c-0.2-0.2-1.2-1.4-2.6-2.2c0,0-0.1-0.1-0.1-0.1c0,0,0,0,0,0c-1.8-1-3.3-1.3-3.3-1.3v0c-2.1-0.5-4.1-0.6-5.7-0.6H36c0,0-0.1,0-0.1,0
		c-1.7,0-3.1,0.3-3.8,0.5c-0.1,0-0.2,0-0.3,0.1c0,0,0,0,0,0c-7.5,2-12.9,8.7-12.9,16.2c0,0.6,0,1.2,0.1,1.7c0,0.2,0,0.4,0.1,0.6
		c0,0.3,0.1,0.6,0.2,0.9c0.1,0.7,0.3,1.4,0.6,2c-0.7-0.4-1.7-1.3-2.4-2.8c-1.1-2.1-1.9-5.6,0.6-10.4c1.5-2.8,4-5.3,7.1-6.9
		c1.6-0.8,3.4-1.6,5.3-1.9H11.7v41.7c2.5,0.7,4.9,0.1,5.7-0.2c0.3-0.1,0.6-0.2,0.8-0.3c-0.9-1.2-1.3-2.4-1.5-3.5
		c-0.4-1.9-0.1-3.3,0.1-3.8L17,35l0.2,0.4c0.3,0.7,0.6,1.3,0.9,1.9c0.1,0.2,0.3,0.5,0.4,0.8c0.1,0.1,0.2,0.3,0.3,0.5
		c0.3,0.5,0.7,0.9,1,1.4c0.3,0.4,0.7,0.7,1,1.1c0.6-0.5,1.1-1.2,1.6-1.9c0.8-1.2,1.6-2.6,2.2-4.3l3.2-9.2c1.3-3.7,2.4-6.9,2.9-8.2
		c0.5-1.3,3.1-7.8,8.7-10.1c0.9-0.4,1.9-0.6,2.9-0.8c0.1,0,0.3,0,0.6-0.1c-2.5,1.2-5.7,3.8-8,9.6l-3.2,9.2c-1.6,4.6-3,8.6-3,8.6
		c0,0-0.4,1.1-1,2.2h0c0,0-1.8,3.8-5.4,6.3c0.3,0.2,0.7,0.5,1.1,0.7C25.7,41.7,28.4,39.1,30.4,34.1L30.4,34.1z"/>
</g>
<g>
</g>
<g>
</g>
<g>
</g>
<g>
</g>
<g>
</g>
<g>
</g>
</svg>
