<svg xmlns="http://www.w3.org/2000/svg" viewBox="0 0 167.99 45.56"><defs><style>.cls-1{fill:#231f20;}.cls-2{fill:#00a5e5;}</style></defs><title>logo</title><g id="Layer_2" data-name="Layer 2"><g id="art"><path class="cls-1" d="M24.86,5.52H23.59V37.78L1.3,5.52H0V40H1.3V7.71L23.59,40h1.28ZM57.64,21.64H40.34V6.8H60.06V5.52h-21V40h21V38.76H40.34V22.92h17.3ZM130.52,5.52v23.3a10.14,10.14,0,0,1-2.87,7.61,11.83,11.83,0,0,1-15.28,0,10.08,10.08,0,0,1-2.88-7.58V5.52h-1.28V29q0,5.38,3.2,8.45a11.86,11.86,0,0,0,8.6,3.07,11.86,11.86,0,0,0,8.6-3.07q3.18-3.07,3.18-8.54V5.52Zm33.23,31.63a12.65,12.65,0,0,1-7.47,2.07A13.58,13.58,0,0,1,148,36.88a7.72,7.72,0,0,1-3.18-6.59h-1.28a9.69,9.69,0,0,0,1.51,5.43,9.58,9.58,0,0,0,4.49,3.54,17.37,17.37,0,0,0,6.73,1.24,16.11,16.11,0,0,0,6.07-1.09,9.36,9.36,0,0,0,4.17-3.09A7.58,7.58,0,0,0,168,31.72a7.72,7.72,0,0,0-3.32-6.54,24.82,24.82,0,0,0-8.22-3.38q-5.62-1.46-8.06-3.35a6.16,6.16,0,0,1,.37-10.09,12.3,12.3,0,0,1,7.36-2,10.69,10.69,0,0,1,7.37,2.52,8.17,8.17,0,0,1,2.84,6.39h1.28A9.81,9.81,0,0,0,166.16,10a9.68,9.68,0,0,0-4.09-3.63,13.39,13.39,0,0,0-6-1.29,13.62,13.62,0,0,0-8.27,2.33,7.24,7.24,0,0,0-3.18,6.1,7.42,7.42,0,0,0,1,4A8.88,8.88,0,0,0,149,20.43a31.44,31.44,0,0,0,6.72,2.49,35,35,0,0,1,6.7,2.41,8.72,8.72,0,0,1,3.25,2.7,6.52,6.52,0,0,1,1,3.73,6.33,6.33,0,0,1-2.94,5.39"/><path class="cls-2" d="M65.28,45.56h4.78L84,25.66l-2.42-3.19ZM65.77,0l15.8,22.47L84,19.28,70.58,0ZM97.41,0,84,19.28l2.45,3.19L84,25.66l13.87,19.9h4.84L86.45,22.47,102.21,0Z"/></g></g></svg>