<?xml version="1.0" encoding="utf-8"?>
<!-- Generator: Adobe Illustrator 19.1.0, SVG Export Plug-In . SVG Version: 6.00 Build 0)  -->
<!DOCTYPE svg PUBLIC "-//W3C//DTD SVG 1.1//EN" "http://www.w3.org/Graphics/SVG/1.1/DTD/svg11.dtd">
<svg version="1.1" id="Layer_1" xmlns="http://www.w3.org/2000/svg" xmlns:xlink="http://www.w3.org/1999/xlink" x="0px" y="0px"
	 viewBox="0 0 132.1 70" style="enable-background:new 0 0 132.1 70;" xml:space="preserve">
<style type="text/css">
	.st0{fill:#939598;}
</style>
<g>
	<path class="st0" d="M2.3,61.1h3.4c1.5,0,2.2-0.7,2.2-2c0-1.3-0.7-2-2.2-2H2.3V61.1z M0.9,67.6V55.8h5c1.1,0,2,0.3,2.6,0.8
		c0.7,0.6,1.1,1.4,1.1,2.5c0,0.8-0.3,1.6-0.8,2.2c-0.5,0.6-1.2,1-2,1.2l2.9,5.2H8.1l-2.9-5.2H2.3v5.2H0.9z"/>
	<polygon class="st0" points="12.4,55.8 12.4,67.6 21.2,67.6 21.2,66.4 13.8,66.4 13.8,62.4 21.2,62.4 21.2,61.1 13.8,61.1 
		13.8,57.1 21.2,57.1 21.2,55.8 	"/>
	<path class="st0" d="M29.8,57.8l2.6,5.3h-5.2L29.8,57.8z M29.2,55.8l-5.8,11.8h1.6l1.5-3.2h6.5l1.6,3.2h1.6l-5.8-11.8H29.2z"/>
	<polygon class="st0" points="38.6,55.8 38.6,67.6 47.3,67.6 47.3,66.4 39.9,66.4 39.9,55.8 	"/>
	<path class="st0" d="M54.3,66.3c1.3,0,2.4-0.4,3.2-1.3c0.8-0.9,1.2-2,1.2-3.3c0-1.3-0.4-2.4-1.2-3.3c-0.8-0.9-1.9-1.3-3.2-1.3
		c-1.3,0-2.4,0.4-3.2,1.3c-0.8,0.9-1.2,2-1.2,3.3c0,1.3,0.4,2.4,1.2,3.3C52,65.9,53.1,66.3,54.3,66.3 M54.3,67.6
		c-1.7,0-3.1-0.6-4.2-1.7c-1.1-1.1-1.6-2.5-1.6-4.3c0-1.7,0.5-3.1,1.6-4.2c1.1-1.1,2.5-1.7,4.2-1.7c1.7,0,3.1,0.6,4.2,1.7
		c1.1,1.1,1.6,2.5,1.6,4.2c0,1.7-0.5,3.1-1.6,4.2C57.4,67.1,56.1,67.6,54.3,67.6"/>
	<path class="st0" d="M71.9,64.3v-1.7h-3.7v-1.3h5.1v3.4c-1.1,2-2.8,2.9-5.1,2.9c-1.7,0-3.1-0.6-4.2-1.7c-1.1-1.1-1.6-2.5-1.6-4.3
		c0-1.7,0.5-3.1,1.6-4.2c1.1-1.1,2.5-1.7,4.2-1.7c2.2,0,3.8,0.9,4.9,2.6L72,59.3c-0.3-0.7-0.8-1.2-1.5-1.6c-0.7-0.4-1.4-0.6-2.2-0.6
		c-1.3,0-2.4,0.4-3.2,1.3c-0.8,0.9-1.2,2-1.2,3.3c0,1.3,0.4,2.4,1.2,3.3c0.8,0.9,1.9,1.3,3.2,1.3C69.8,66.3,71.1,65.6,71.9,64.3"/>
	<rect x="76.1" y="55.8" class="st0" width="1.4" height="11.9"/>
	<path class="st0" d="M89.8,63.8l1.1,0.8c-1.1,2-2.8,3-5.1,3c-1.7,0-3.1-0.6-4.2-1.7c-1.1-1.1-1.6-2.5-1.6-4.3
		c0-1.7,0.5-3.1,1.6-4.2c1.1-1.1,2.5-1.7,4.2-1.7c2.2,0,3.8,0.9,4.9,2.6l-1.2,0.9c-0.3-0.7-0.8-1.2-1.5-1.6
		c-0.7-0.4-1.4-0.6-2.2-0.6c-1.3,0-2.4,0.4-3.2,1.3c-0.8,0.9-1.2,2-1.2,3.3s0.4,2.4,1.2,3.3c0.8,0.9,1.9,1.3,3.2,1.3
		C87.6,66.3,88.9,65.5,89.8,63.8"/>
	<path class="st0" d="M102.5,61.6c-0.7-0.6-1.5-0.9-2.5-1l-1.6-0.1c-1.1-0.1-1.7-0.2-1.9-0.2c-0.5-0.1-0.9-0.3-1.1-0.5
		c-0.2-0.1-0.3-0.3-0.4-0.5c-0.1-0.2-0.1-0.3-0.1-0.5c0-0.6,0.4-1.1,1.1-1.4c0.6-0.2,1.2-0.4,1.8-0.4c1.6,0,3.1,0.6,4.5,1.7l0.8-1.2
		c-1.7-1.2-3.5-1.8-5.4-1.8c-1.1,0-2.1,0.2-2.9,0.7c-1,0.6-1.5,1.4-1.5,2.4c0,1.1,0.5,1.8,1.6,2.3c0.5,0.2,1,0.4,1.6,0.5
		c1,0.1,1.8,0.2,2.2,0.2l0.8,0c0.5,0,0.9,0.1,1.1,0.2c0.3,0.1,0.6,0.3,0.8,0.5c0.5,0.4,0.7,0.8,0.7,1.4c0,0.8-0.4,1.4-1.2,1.9
		c-0.7,0.4-1.4,0.5-2.3,0.5c-1.5,0-3.1-0.5-4.5-1.6L93.3,66c1.6,1.1,3.4,1.6,5.3,1.6c1.3,0,2.4-0.3,3.3-0.8c1.1-0.7,1.6-1.6,1.6-2.8
		C103.6,63,103.2,62.2,102.5,61.6"/>
	<path class="st0" d="M111.4,39.8h-1.6v1.5h1.5c0.6,0,0.9-0.3,0.9-0.8C112.3,40,112,39.8,111.4,39.8 M126.5,36.9h-9.4v9.4h-1.2v-9.4
		h-9.4v-1.2h9.4v-9.4h1.2v9.4h9.4V36.9z M124.2,33.9h-4.6l0-6h1v5h3.6V33.9z M114.1,31.4h-2.5l0,2.5h-1v-2.5h-2.4v-1h2.4v-2.5h1v2.5
		h2.5V31.4z M108.8,38.8h2.6c0.6,0,1,0.1,1.4,0.4c0.4,0.3,0.6,0.7,0.6,1.3c0,0.4-0.1,0.8-0.3,1.1c-0.2,0.3-0.5,0.5-0.9,0.6l1.4,2.5
		h-1.1l-1.4-2.5h-1.1v2.5h-1V38.8z M130.9,36.3c0-8-6.5-14.4-14.4-14.4s-14.4,6.5-14.4,14.4c0,8,6.5,14.4,14.4,14.4
		S130.9,44.3,130.9,36.3"/>
</g>
<g>
</g>
<g>
</g>
<g>
</g>
<g>
</g>
<g>
</g>
<g>
</g>
</svg>
