<?xml version="1.0" encoding="utf-8"?>
<!-- Generator: Adobe Illustrator 19.1.0, SVG Export Plug-In . SVG Version: 6.00 Build 0)  -->
<!DOCTYPE svg PUBLIC "-//W3C//DTD SVG 1.1//EN" "http://www.w3.org/Graphics/SVG/1.1/DTD/svg11.dtd">
<svg version="1.1" id="Layer_1" xmlns="http://www.w3.org/2000/svg" xmlns:xlink="http://www.w3.org/1999/xlink" x="0px" y="0px"
	 viewBox="0 0 75 70" style="enable-background:new 0 0 75 70;" xml:space="preserve">
<style type="text/css">
	.st0{fill:#939598;}
	.st1{fill:#FFFFFF;}
</style>
<g>
	<rect x="1.5" y="1.6" class="st0" width="71.9" height="66.8"/>
	<rect x="11.3" y="32" class="st1" width="51.6" height="0.3"/>
	<polygon class="st1" points="57.5,40 56.3,43 56.6,43 58.9,40 	"/>
	<path class="st1" d="M14.2,47.3c-0.8,0-1.5-0.2-2-0.5l-0.5,0.5h-0.2l-0.2-3l0.3,0c0.8,1.9,1.8,2.5,2.7,2.5c0.9,0,1.5-0.6,1.5-1.5
		c0-0.8-0.3-1.2-1.5-1.7c-0.4-0.2-0.9-0.3-1.3-0.5C12,42.7,11.5,42,11.5,41c0-1.6,1.3-2.6,2.7-2.6c0.7,0,1.1,0.2,1.5,0.4l0.5-0.5
		h0.2l0.2,2.6l-0.3,0c-0.7-1.5-1.5-2.2-2.3-2.2c-0.7,0-1.2,0.5-1.2,1.3c0,0.6,0.3,1.1,1.2,1.5c0.5,0.2,1,0.4,1.5,0.6
		c1.1,0.5,1.6,1.2,1.6,2.2C17.1,46.3,15.6,47.3,14.2,47.3"/>
	<path class="st1" d="M21.1,47.4c-2,0-3-1.5-3-3.2c0-1.6,1.1-3.2,3.1-3.2c2,0,2.9,1.4,2.9,3.2C24.2,45.8,23.1,47.4,21.1,47.4
		 M21.1,41.3c-0.9,0-1.5,1-1.5,2.9c0,1.8,0.6,2.8,1.5,2.8c1,0,1.5-1,1.5-2.9C22.7,42.3,22.1,41.3,21.1,41.3"/>
	<path class="st1" d="M27,47.3c-1,0-1.4-0.5-1.4-1.5v-4h-1v-0.2l1.2-1l1-1.3H27v1.7h2v0.7h-2v3.5c0,0.5,0.1,0.9,0.3,1
		c0.2,0.2,0.5,0.2,1,0.2c0.2,0,0.5,0,0.7,0l0,0.2C28.6,47,27.7,47.3,27,47.3"/>
	<path class="st1" d="M33.1,41.9c-0.5,0-0.9,0.1-1.4,0.3v4.4l0.7,0.3v0.2h-3V47l0.8-0.3v-8.1L29.5,38v-0.1l2.2-0.6l0.1,0V42l0.1,0
		c0.8-0.7,1.5-1.1,2.2-1.1c1.2,0,1.7,0.9,1.7,1.9v3.9l0.8,0.3v0.2h-3V47l0.7-0.3v-3.4C34.3,42.4,33.9,41.9,33.1,41.9"/>
	<path class="st1" d="M38.4,43.7c0,1.7,0.5,2.8,1.9,2.8c0.7,0,1.2-0.1,2-0.4l0.1,0.2c-0.8,0.7-1.7,1.2-2.5,1.2c-1.8,0-3-1.3-3-3.1
		c0-1.9,1.4-3.3,3-3.3c1.7,0,2.6,1.2,2.5,2.8H38.4z M41,43.2c-0.1-1.3-0.4-1.9-1.2-1.9c-0.8,0-1.3,0.8-1.4,2.1L41,43.2z"/>
	<path class="st1" d="M46,47.4c-0.7,0-1.6-0.2-2.2-0.3v-8.4L42.8,38v-0.1l2.3-0.6l0.1,0v4.5l0.1,0c0.5-0.5,1.1-0.9,1.9-0.9
		c1.2,0,2.4,1.2,2.4,3.1C49.5,45.9,48.1,47.4,46,47.4 M46.2,41.8c-0.4,0-0.7,0.1-1,0.2v4.2c0.4,0.4,0.9,0.6,1.4,0.6
		c0.8,0,1.4-0.7,1.4-2.6C48,42.6,47.3,41.8,46.2,41.8"/>
	<path class="st1" d="M53.1,47.6c-0.7,1.6-1.3,2.4-2.1,2.4c-0.7,0-1-0.4-1-0.8c0-0.4,0.4-0.8,0.8-0.8c0.4,0,0.7,0.2,1,0.6
		c0.2-0.3,0.5-0.8,0.7-1.1l0.2-0.5l-2.3-5.7l-0.8-0.3v-0.2h3.2v0.2l-0.8,0.3l1.4,3.9h0.1l1.3-3.8l-0.8-0.4v-0.2h2.2v0.2l-0.8,0.4
		L53.1,47.6z"/>
	<path class="st1" d="M60.5,47.4c-0.7,0-1.3-0.1-1.9-0.4l0-1.8l0.3,0c0.7,1.3,1.2,1.7,1.9,1.7c0.6,0,1-0.4,1-1c0-0.7-0.7-1-1.4-1.3
		c-0.8-0.4-1.7-0.8-1.7-1.9c0-1.1,0.9-1.9,2.2-1.9c0.5,0,1.2,0.1,1.6,0.2l0,1.6l-0.2,0.1c-0.6-1.1-1.1-1.5-1.7-1.5
		c-0.5,0-0.9,0.4-0.9,0.9c0,0.7,0.7,1,1.4,1.3c0.8,0.3,1.7,0.7,1.7,1.9C62.8,46.6,61.8,47.4,60.5,47.4"/>
	<path class="st1" d="M61.4,55.4h0.3V54l1-1.7h-0.3l-0.8,1.5l-0.9-1.5h-0.3l1,1.7V55.4z M58.7,55.4H59v-2.8h1v-0.3h-2.3v0.3h1V55.4z
		 M56.1,55.4h1.8v-0.3h-1.5v-2.8h-0.3V55.4z M53.6,54.2l0.5-1.5h0l0.5,1.5H53.6z M52.9,55.4h0.3l0.3-1h1.2l0.3,1h0.3l-1.1-3.1H54
		L52.9,55.4z M50.7,55.4h1.9v-0.3h-1.6v-1.2h1.1v-0.3h-1.1v-1.1h1.5v-0.3h-1.8V55.4z M47.9,53.8v-1.2h0.7c0.5,0,0.8,0.2,0.8,0.6
		c0,0.5-0.3,0.6-0.8,0.6H47.9z M47.7,55.4h0.3V54h0.8l0.7,1.4h0.3L49,54c0.4-0.1,0.7-0.3,0.7-0.8c0-0.5-0.4-0.8-1.1-0.8h-1V55.4z
		 M44.1,55.4h1.8v-0.3h-1.5v-2.8h-0.3V55.4z M41.5,54.2l0.5-1.5h0l0.5,1.5H41.5z M40.9,55.4h0.3l0.3-1h1.2l0.3,1h0.3l-1.1-3.1h-0.3
		L40.9,55.4z M37.8,55.4h0.3v-2.6h0l1.7,2.6h0.3v-3.1h-0.3v2.6h0l-1.7-2.6h-0.3V55.4z M35.6,55.2c-0.6,0-1-0.5-1-1.3s0.4-1.3,1-1.3
		c0.6,0,1,0.5,1,1.3S36.1,55.2,35.6,55.2 M35.6,55.5c0.7,0,1.3-0.6,1.3-1.6s-0.5-1.6-1.3-1.6c-0.7,0-1.3,0.6-1.3,1.6
		S34.8,55.5,35.6,55.5 M33.1,55.4h0.3v-3.1h-0.3V55.4z M31.2,55.4h0.3v-2.8h1v-0.3h-2.3v0.3h1V55.4z M28.2,54.2l0.5-1.5h0l0.5,1.5
		H28.2z M27.5,55.4h0.3l0.3-1h1.2l0.3,1H30l-1.1-3.1h-0.3L27.5,55.4z M24.5,55.4h0.3v-2.6h0l1.7,2.6h0.3v-3.1h-0.3v2.6h0l-1.7-2.6
		h-0.3V55.4z M21.7,53.8v-1.2h0.7c0.5,0,0.8,0.2,0.8,0.6c0,0.5-0.3,0.6-0.8,0.6H21.7z M21.4,55.4h0.3V54h0.8l0.7,1.4h0.3L22.7,54
		c0.4-0.1,0.7-0.3,0.7-0.8c0-0.5-0.4-0.8-1.1-0.8h-1V55.4z M18.7,55.4h1.9v-0.3H19v-1.2h1.1v-0.3H19v-1.1h1.5v-0.3h-1.8V55.4z
		 M16.7,55.4H17v-2.8h1v-0.3h-2.3v0.3h1V55.4z M12.8,55.4h0.3v-2.6h0l1.7,2.6h0.3v-3.1h-0.3v2.6h0l-1.7-2.6h-0.3V55.4z M11.5,55.4
		h0.3v-3.1h-0.3V55.4z"/>
	<path class="st1" d="M14.2,21.2c1.4,0,2.2-0.4,2.2-1.7c0-1.2-0.8-1.6-2.2-1.6h-2v3.3H14.2z M11.4,17h2.9c1.9,0,3,0.8,3,2.4
		c0,1.4-0.8,2.1-2.1,2.4l2.2,4.1h-0.9l-2.1-4h-2.1v4h-0.8V17z"/>
	<path class="st1" d="M22.7,22.2c-0.1-1.2-0.6-2.1-1.7-2.1c-0.9,0-1.7,0.7-1.9,2.1H22.7z M18.3,22.7c0-2.2,1.4-3.3,2.7-3.3
		c1.4,0,2.5,1.1,2.5,3.3v0.2h-4.4c0,1.6,0.9,2.4,1.9,2.4c0.9,0,1.4-0.4,1.9-1.1l0.5,0.4C22.9,25.5,22.1,26,21,26
		C19.5,26,18.3,24.9,18.3,22.7"/>
	<path class="st1" d="M28.7,24.3v-2c-2.6,0.5-3.4,1.1-3.4,1.9c0,0.7,0.4,1,1.1,1C27.3,25.3,28.1,24.9,28.7,24.3 M24.5,24.4
		c0-1.2,1-2.1,4.2-2.6v-0.3c0-0.9-0.4-1.3-1.2-1.3c-1,0-1.7,0.4-2.3,1l-0.4-0.5c0.7-0.7,1.6-1.2,2.8-1.2c1.4,0,2,0.8,2,2v2.9
		c0,0.8,0,1.2,0.2,1.6h-0.8c-0.1-0.3-0.1-0.5-0.1-0.9c-0.7,0.7-1.5,1-2.4,1C25.2,26,24.5,25.4,24.5,24.4"/>
	<rect x="31.2" y="17" class="st1" width="0.8" height="8.8"/>
	<path class="st1" d="M38.1,22.7c0-1.4-0.7-2.6-2-2.6c-1.2,0-2,1.1-2,2.6c0,1.4,0.7,2.6,2,2.6C37.4,25.3,38.1,24.2,38.1,22.7
		 M33.4,22.7c0-2.1,1.3-3.3,2.8-3.3c1.5,0,2.8,1.2,2.8,3.3c0,2.1-1.3,3.3-2.8,3.3C34.7,26,33.4,24.8,33.4,22.7"/>
	<path class="st1" d="M44.1,21.7c0-1-0.6-1.6-1.7-1.6c-1,0-1.6,0.6-1.6,1.6c0,1,0.7,1.6,1.7,1.6C43.5,23.3,44.1,22.7,44.1,21.7
		 M44.6,26.6c0-0.6-0.5-0.9-1.7-1l-1.2-0.1l-0.3,0c-0.7,0.2-1,0.7-1,1.1c0,0.7,0.7,1,2.2,1C43.9,27.6,44.6,27.2,44.6,26.6
		 M39.6,26.7c0-0.6,0.4-1.1,1.1-1.4c-0.4-0.2-0.5-0.4-0.5-0.8c0-0.4,0.3-0.7,0.7-0.9c-0.6-0.4-0.9-1-0.9-1.8c0-1.3,1-2.3,2.4-2.3
		c0.7,0,1.3,0.2,1.8,0.6c0.4-0.3,0.9-0.5,1.4-0.6v0.8c-0.4,0-0.8,0.1-1.1,0.2c0.2,0.3,0.4,0.7,0.4,1.2c0,1.4-1.1,2.2-2.4,2.2
		c-0.4,0-0.7-0.1-1-0.2c-0.3,0.1-0.5,0.3-0.5,0.5c0,0.3,0.2,0.4,0.9,0.5l1.3,0.1c1.4,0.1,2.2,0.6,2.2,1.6c0,1.1-1.2,1.8-2.8,1.8
		C40.5,28.3,39.6,27.7,39.6,26.7"/>
	<path class="st1" d="M46.8,25.9h0.8v-6.3h-0.8V25.9z M46.7,18.1h0.9v-0.9h-0.9V18.1z"/>
	<path class="st1" d="M48.9,22.7c0-2.3,1.4-3.3,2.7-3.3c1.3,0,2,0.8,2.4,1.7l-0.7,0.3c-0.3-0.8-0.8-1.3-1.7-1.3
		c-0.9,0-1.9,0.7-1.9,2.6c0,1.6,0.8,2.6,1.9,2.6c0.9,0,1.3-0.4,1.8-1.3l0.7,0.3c-0.5,1.1-1.2,1.8-2.5,1.8
		C50.2,26,48.9,24.8,48.9,22.7"/>
	<path class="st1" d="M54.9,24.9l0.5-0.5c0.5,0.5,1.1,0.9,1.9,0.9c1.1,0,1.6-0.4,1.6-1.1c0-0.7-0.5-1-1.7-1.3
		c-1.4-0.4-2.1-0.7-2.1-1.8c0-0.9,0.8-1.6,2.1-1.6c1.1,0,1.7,0.4,2.3,0.9L59,20.9c-0.5-0.5-1.1-0.8-1.8-0.8c-1,0-1.3,0.5-1.3,0.9
		c0,0.6,0.4,0.9,1.5,1.1c1.5,0.4,2.3,0.8,2.3,2c0,1.1-1,1.8-2.4,1.8C56.2,26,55.4,25.5,54.9,24.9"/>
</g>
<g>
</g>
<g>
</g>
<g>
</g>
<g>
</g>
<g>
</g>
<g>
</g>
</svg>
