<svg xmlns="http://www.w3.org/2000/svg" viewBox="0 0 244 17.04"><defs><style>.cls-1{fill:#fff;}</style></defs><title>tagline</title><g id="Layer_2" data-name="Layer 2"><g id="art"><path class="cls-1" d="M10.59,14.82a8,8,0,0,1-1.74,1.77A3,3,0,0,1,7.43,17H3.73a3.05,3.05,0,0,1-1.46-.45A9.58,9.58,0,0,1,.36,14.66,2.49,2.49,0,0,1,0,13.31V3.78A2.49,2.49,0,0,1,.36,2.44a9.72,9.72,0,0,1,1.91-2A3,3,0,0,1,3.7,0H7.43A3,3,0,0,1,8.86.48a8,8,0,0,1,1.74,1.77,6.6,6.6,0,0,1,.62,1.09l-1.6.48a2.06,2.06,0,0,0-.2-.36A5.27,5.27,0,0,0,7.73,1.71a.81.81,0,0,0-.39-.08H3.84a.7.7,0,0,0-.36.08A5.68,5.68,0,0,0,1.74,3.45a6.58,6.58,0,0,0-.08,1.07v8.74a.78.78,0,0,0,.08.36,5.68,5.68,0,0,0,1.74,1.74.7.7,0,0,0,.36.08h3.5a.81.81,0,0,0,.39-.08,5.57,5.57,0,0,0,1.68-1.74,1.22,1.22,0,0,0,.2-.34l1.6.45A6.6,6.6,0,0,1,10.59,14.82Z"/><path class="cls-1" d="M16.17,16.87V.06h1.65V16.87Z"/><path class="cls-1" d="M29,1.6V16.87h-1.6V1.6H22.63V.06H33.84V1.6Z"/><path class="cls-1" d="M44.79,9.28v7.59H43.16V9.28l-5-9.22h1.74L43.81,7.4h.36l4-7.34h1.71Z"/><path class="cls-1" d="M62.41,16.87V.06H64V15.27h7.85v1.6Z"/><path class="cls-1" d="M76.69,16.87V.06h1.65V16.87Z"/><path class="cls-1" d="M85.41,1.65v6H93v1.6H85.41v7.59H83.78V.06h9.64v1.6Z"/><path class="cls-1" d="M98.5,16.87V.06h9.64v1.6h-8v6h8v1.6h-8v6h8v1.6Z"/><path class="cls-1" d="M114.08,16.87V14.68h2.19v2.19Z"/><path class="cls-1" d="M131.28,16.87V.06h9.64v1.6h-8v6h8v1.6h-8v6h8v1.6Z"/><path class="cls-1" d="M153.85,16.87h-2.52L145.84,0h1.71l4.85,15.1h.39L157.64,0h1.71Z"/><path class="cls-1" d="M175,14.63A9.57,9.57,0,0,1,173,16.56a3.06,3.06,0,0,1-1.46.45h-4.43a3,3,0,0,1-1.43-.45,9.72,9.72,0,0,1-1.93-1.93,2.56,2.56,0,0,1-.34-1.37V3.78a2.56,2.56,0,0,1,.34-1.37,9.86,9.86,0,0,1,1.93-2A3,3,0,0,1,167.16,0h4.43A3.06,3.06,0,0,1,173,.45a9.71,9.71,0,0,1,1.91,2,2.58,2.58,0,0,1,.36,1.37v9.47A2.58,2.58,0,0,1,175,14.63ZM173.66,3.84a1,1,0,0,0-.08-.42,5.68,5.68,0,0,0-1.74-1.74.7.7,0,0,0-.36-.08H167.3a.7.7,0,0,0-.36.08,5.68,5.68,0,0,0-1.74,1.74,1,1,0,0,0-.11.42v9.39a.8.8,0,0,0,.11.36,5.68,5.68,0,0,0,1.74,1.74.7.7,0,0,0,.36.08h4.18a.7.7,0,0,0,.36-.08,5.68,5.68,0,0,0,1.74-1.74.77.77,0,0,0,.08-.36Z"/><path class="cls-1" d="M180.58,16.87V.06h1.63V15.27h7.85v1.6Z"/><path class="cls-1" d="M200,16.87h-2.52L191.94,0h1.71l4.85,15.1h.39L203.74,0h1.71Z"/><path class="cls-1" d="M210,16.87V.06h9.64v1.6h-8v6h8v1.6h-8v6h8v1.6Z"/><path class="cls-1" d="M235.69,14.49a9.59,9.59,0,0,1-1.91,1.93,3,3,0,0,1-1.43.45H225V0h7.4a2.92,2.92,0,0,1,1.43.42,9.86,9.86,0,0,1,1.91,2A2.47,2.47,0,0,1,236,3.76v9.39A2.47,2.47,0,0,1,235.69,14.49Zm-1.35-11.1a5.74,5.74,0,0,0-1.77-1.74.7.7,0,0,0-.36-.08h-5.66v13.7h5.66a.7.7,0,0,0,.36-.08,5.74,5.74,0,0,0,1.77-1.74.77.77,0,0,0,.08-.36V3.81A1,1,0,0,0,234.35,3.39Z"/><path class="cls-1" d="M241.81,16.87V14.68H244v2.19Z"/></g></g></svg>